<?xml version="1.0" standalone="no"?>
<!DOCTYPE svg PUBLIC "-//W3C//DTD SVG 20010904//EN"
 "http://www.w3.org/TR/2001/REC-SVG-20010904/DTD/svg10.dtd">
<svg version="1.0" xmlns="http://www.w3.org/2000/svg"
 width="512.000000pt" height="512.000000pt" viewBox="0 0 512.000000 512.000000"
 preserveAspectRatio="xMidYMid meet">
<metadata>
Created by potrace 1.14, written by Peter Selinger 2001-2017
</metadata>
<g transform="translate(0.000000,512.000000) scale(0.100000,-0.100000)"
fill="#000000" stroke="none">
<path d="M660 5104 c-165 -35 -325 -124 -438 -244 -53 -55 -127 -172 -160
-252 -64 -154 -60 -33 -60 -2053 l0 -1840 22 -87 c58 -222 184 -393 381 -515
62 -38 186 -85 267 -100 24 -4 878 -8 1898 -8 2093 0 1900 -7 2085 79 230 108
411 343 453 589 4 23 7 877 7 1897 0 2022 4 1888 -58 2040 -103 254 -332 442
-601 495 -106 21 -3699 20 -3796 -1z"/>
</g>
</svg>
